<svg id="Layer_1" data-name="Layer 1" xmlns="http://www.w3.org/2000/svg" viewBox="0 0 202.31 105.6"><defs><style>.cls-1{fill:#fff;}</style></defs><path d="M39.39,81.11H71.22V95.73h-19v34.12H66.71v14.29H52.23v42.57H39.39Z" transform="translate(-39.39 -81.11)"/><path d="M76.28,86.15H88.57v14.94H76.28Zm0,23.55H88.57v77H76.28Z" transform="translate(-39.39 -81.11)"/><path d="M97.18,171.6V92.16h12.29V109.7h11.61l-1,14H109.47v49.07h11.07v14h-12C100.32,186.71,97.18,181.19,97.18,171.6Z" transform="translate(-39.39 -81.11)"/><path class="cls-1" d="M138,186.71V145L123.54,81.11h13.12l7.65,44.68h.54l7.93-44.68h13L150.86,145v41.75Z" transform="translate(-39.39 -81.11)"/><path class="cls-1" d="M164.66,170.3V125.14c0-10.73,4.64-15.44,12-15.44h11.61c7.92,0,11.89,4.88,11.89,15.44v29.24H176.54v19.17h11.89v-8.12h11.75v4.87c0,11.21-4.1,16.41-12,16.41H176.68C169.17,186.71,164.66,181.67,164.66,170.3Zm11.88-47v20.47h11.89V123.35Z" transform="translate(-39.39 -81.11)"/><path class="cls-1" d="M207.14,172.57V164H219v9.43h10.66V159.58L213,147.88c-4.23-2.76-5.87-5.68-5.87-12v-12c0-9.26,3.55-14.14,11.88-14.14H230c8.34,0,11.75,4.55,11.75,14.46v7.64h-12v-8.61H219V136l16.67,11.7c4.65,3.25,6,5.2,6,13v12c0,7.63-3.69,14-11.34,14H218.62C211.51,186.71,207.14,181.83,207.14,172.57Z" transform="translate(-39.39 -81.11)"/></svg>